<?xml version="1.0" encoding="iso-8859-1"?>
<!-- Generator: Adobe Illustrator 19.0.0, SVG Export Plug-In . SVG Version: 6.00 Build 0)  -->
<svg version="1.1" id="Layer_1" xmlns="http://www.w3.org/2000/svg" xmlns:xlink="http://www.w3.org/1999/xlink" x="0px" y="0px"
	 viewBox="0 0 473.935 473.935" style="enable-background:new 0 0 473.935 473.935;" xml:space="preserve">
<circle style="fill:#1FA85B;" cx="236.967" cy="236.967" r="236.967"/>
<g>
	<path style="fill:#D7B528;" d="M241.914,45.564c-53.766,0-97.354,43.584-97.354,97.35s43.584,97.358,97.354,97.358
		s97.354-43.592,97.354-97.358C339.268,89.152,295.68,45.564,241.914,45.564z M241.914,108.774
		c-10.836,0-19.614-8.786-19.614-19.622s8.778-19.614,19.614-19.614c10.836,0,19.614,8.778,19.614,19.614
		S252.754,108.774,241.914,108.774z"/>
	<path style="fill:#D7B528;" d="M207.28,174.45v235.598c0,0.782,0.262,1.527,0.737,2.058l18.181,20.4
		c0.408,0.479,0.965,0.726,1.527,0.726c0.075,0,0.146,0,0.206-0.015c0.644-0.06,1.22-0.453,1.609-1.081l26.507-42.664
		c0.535-0.849,0.621-2.002,0.213-2.964l-11.861-28.149v-11.772l8.864-7.514c0.554-0.486,0.913-1.235,0.973-2.069l2.185-32.969
		l21.04-16.875c0.636-0.509,1.022-1.388,1.022-2.324V175.127L207.28,174.45z"/>
</g>
<path style="fill:#E8C638;" d="M241.914,45.564l-0.771,24.048c0.262-0.007,0.509-0.079,0.771-0.079
	c10.836,0,19.614,8.778,19.614,19.614s-8.778,19.622-19.614,19.622c-0.692,0-1.343-0.135-2.017-0.202L229.54,432.135l26.507-42.664
	c0.535-0.849,0.621-2.002,0.213-2.963l-11.861-28.15v-11.772l8.864-7.514c0.554-0.486,0.913-1.235,0.973-2.069l2.185-32.969
	l21.04-16.875c0.636-0.509,1.022-1.388,1.022-2.324V233.14c35.641-14.462,60.785-49.399,60.785-90.226
	C339.268,89.152,295.68,45.564,241.914,45.564z"/>
<g>
	<path style="fill:#B3932F;" d="M223.104,429.037l3.098,3.469c0.408,0.479,0.965,0.726,1.527,0.726c0.075,0,0.146,0,0.206-0.015
		c0.408-0.037,0.775-0.254,1.104-0.543V239.396c-1.994-0.266-3.978-0.576-5.934-0.962V429.037z"/>
	<path style="fill:#B3932F;" d="M257.319,303.321l5.942-4.76v-60.669c-1.961,0.438-3.94,0.834-5.942,1.152V303.321z"/>
</g>
<g>
</g>
<g>
</g>
<g>
</g>
<g>
</g>
<g>
</g>
<g>
</g>
<g>
</g>
<g>
</g>
<g>
</g>
<g>
</g>
<g>
</g>
<g>
</g>
<g>
</g>
<g>
</g>
<g>
</g>
</svg>
