<?xml version="1.0" encoding="iso-8859-1"?>
<!-- Generator: Adobe Illustrator 19.0.0, SVG Export Plug-In . SVG Version: 6.00 Build 0)  -->
<svg version="1.1" id="Layer_1" xmlns="http://www.w3.org/2000/svg" xmlns:xlink="http://www.w3.org/1999/xlink" x="0px" y="0px"
	 viewBox="0 0 473.954 473.954" style="enable-background:new 0 0 473.954 473.954;" xml:space="preserve">
<circle style="fill:#A2D4DE;" cx="236.988" cy="236.977" r="236.966"/>
<path style="fill:#6CC077;" d="M455.032,144.062l-47.154-47.157c0,0-31.449-36.662-57.754-38.151
	c-26.29-1.489-54.626,35.027-54.626,35.027l-43.303,43.315l-7.005-7.012c0,0-25.567-29.822-46.989-31.034
	c-21.407-1.216-44.448,28.497-44.448,28.497l-23.012,23.012c-3.656-4.086-22.843-24.666-39.303-25.605
	c-18.241-1.029-37.908,24.31-37.908,24.31L2.907,199.881C1.007,211.963,0,224.345,0,236.962c0,38.551,9.268,74.914,25.597,107.089
	l422.755,0.007c16.333-32.179,25.601-68.542,25.601-107.097C473.954,203.986,467.204,172.589,455.032,144.062z"/>
<path style="fill:#C2C099;" d="M236.977,473.943c113.645,0,208.562-80.021,231.6-186.781
	c-41.156-8.337-126.471-22.308-236.128-22.308c-114.382,0-192.929,15.203-226.825,23.349
	C29.047,394.441,123.699,473.943,236.977,473.943z"/>
<path style="fill:#ABD9DF;" d="M265.111,198.942H65.006c-2.196,0-3.977,1.777-3.977,3.97v133.371c0,2.193,1.785,3.978,3.977,3.978
	h200.106L265.111,198.942L265.111,198.942z"/>
<path style="fill:#B0DFE5;" d="M264.861,219.941v120.32h148.473c1.871,0,3.383-1.519,3.383-3.383V219.941H264.861z"/>
<path style="fill:#357180;" d="M424.069,205.389c-0.116-1.19-0.79-2.234-1.744-2.881l-145.102,0.082
	c-0.03-0.022-0.045-0.06-0.045-0.06l-49.997-42.334v-29.305c0-2.2-1.781-3.977-3.978-3.977h-18.866c-2.2,0-3.981,1.777-3.981,3.977
	v6.6l-37.515-31.768c-1.515-1.283-3.738-1.257-5.22,0.075L48.953,202.635c-0.153,0.123-0.299,0.254-0.43,0.393
	c-0.902,0.891-1.298,2.159-1.111,3.39v9.414c0,2.2,1.792,3.981,3.981,3.981h368.709c2.2,0,3.981-1.785,3.981-3.981
	C424.087,215.832,424.102,205.628,424.069,205.389z"/>
<path style="fill:#87BCC0;" d="M402.28,254.522H279.902c-1.369,0-2.477,1.111-2.477,2.477v83.161h127.332v-83.161
	C404.757,255.633,403.646,254.522,402.28,254.522z"/>
<g>
	
		<line style="fill:none;stroke:#75A9AB;stroke-linecap:round;stroke-linejoin:round;stroke-miterlimit:10;" x1="288.175" y1="328.313" x2="392.72" y2="328.313"/>
	
		<line style="fill:none;stroke:#75A9AB;stroke-linecap:round;stroke-linejoin:round;stroke-miterlimit:10;" x1="288.175" y1="313.833" x2="392.72" y2="313.833"/>
	
		<line style="fill:none;stroke:#75A9AB;stroke-linecap:round;stroke-linejoin:round;stroke-miterlimit:10;" x1="288.175" y1="299.539" x2="392.72" y2="299.539"/>
	
		<line style="fill:none;stroke:#75A9AB;stroke-linecap:round;stroke-linejoin:round;stroke-miterlimit:10;" x1="288.175" y1="285.208" x2="392.72" y2="285.208"/>
	
		<line style="fill:none;stroke:#75A9AB;stroke-linecap:round;stroke-linejoin:round;stroke-miterlimit:10;" x1="288.175" y1="271.214" x2="392.72" y2="271.214"/>
</g>
<path style="fill:#4D4C4C;" d="M144.78,286.45c0-2.264,1.837-4.108,4.112-4.108h25.343c2.271,0,4.112,1.841,4.112,4.108v53.78
	H144.78L144.78,286.45L144.78,286.45z"/>
<circle style="fill:#CDCCCB;" cx="150.03" cy="311.438" r="2.08"/>
<g>
	<path style="fill:#87BCC0;" d="M233.961,282.275h-25.44h-2.387c-2.26,0-4.105,1.833-4.105,4.112v25.343
		c0,2.268,1.841,4.116,4.105,4.116h2.387h25.44c2.26,0,4.101-1.837,4.101-4.116v-25.343
		C238.062,284.116,236.217,282.275,233.961,282.275z"/>
	<path style="fill:#87BCC0;" d="M233.961,234.878h-25.44h-2.387c-2.26,0-4.105,1.833-4.105,4.112v25.343
		c0,2.268,1.841,4.112,4.105,4.112h2.387h25.44c2.26,0,4.101-1.833,4.101-4.112V238.99
		C238.062,236.719,236.217,234.878,233.961,234.878z"/>
	<path style="fill:#87BCC0;" d="M117.966,282.275h-25.44h-2.387c-2.26,0-4.105,1.833-4.105,4.112v25.343
		c0,2.268,1.841,4.116,4.105,4.116h2.387h25.44c2.26,0,4.101-1.837,4.101-4.116v-25.343
		C122.067,284.116,120.223,282.275,117.966,282.275z"/>
	<path style="fill:#87BCC0;" d="M117.966,234.878h-25.44h-2.387c-2.26,0-4.105,1.833-4.105,4.112v25.343
		c0,2.268,1.841,4.112,4.105,4.112h2.387h25.44c2.26,0,4.101-1.833,4.101-4.112V238.99
		C122.067,236.719,120.223,234.878,117.966,234.878z"/>
	<path style="fill:#87BCC0;" d="M175.964,234.878h-25.44h-2.387c-2.26,0-4.105,1.833-4.105,4.112v25.343
		c0,2.268,1.841,4.112,4.105,4.112h2.387h25.44c2.26,0,4.101-1.833,4.101-4.112V238.99
		C180.065,236.719,178.22,234.878,175.964,234.878z"/>
</g>
<g>
</g>
<g>
</g>
<g>
</g>
<g>
</g>
<g>
</g>
<g>
</g>
<g>
</g>
<g>
</g>
<g>
</g>
<g>
</g>
<g>
</g>
<g>
</g>
<g>
</g>
<g>
</g>
<g>
</g>
</svg>
